<?xml version="1.0" encoding="utf-8"?>
<!-- Generator: Adobe Illustrator 16.0.0, SVG Export Plug-In . SVG Version: 6.00 Build 0)  -->
<!DOCTYPE svg PUBLIC "-//W3C//DTD SVG 1.1//EN" "http://www.w3.org/Graphics/SVG/1.1/DTD/svg11.dtd">
<svg version="1.1" id="Calque_1" xmlns="http://www.w3.org/2000/svg" xmlns:xlink="http://www.w3.org/1999/xlink" x="0px" y="0px"
	 width="798.755px" height="318.017px" viewBox="0 0 798.755 318.017" enable-background="new 0 0 798.755 318.017"
	 xml:space="preserve">
<g>
	<rect x="529.835" y="205.955" fill="#020203" width="37.044" height="1.664"/>
	<g>
		<path fill="#010202" d="M142.991,281.359c-68.236-0.519-123.145-56.255-122.633-124.498
			C20.872,88.614,76.609,33.716,144.849,34.228c68.243,0.518,123.142,56.252,122.637,124.505
			C266.975,226.969,211.228,281.87,142.991,281.359z"/>
		<g>
			<g>
				<path fill="#FFFFFF" d="M223.134,210.125l-159.027-1.078L144.55,71.864L223.134,210.125z M70.504,205.415l146.285,0.986
					L144.501,79.22L70.504,205.415z"/>
			</g>
			<g>
				<polygon fill="#FFFFFF" points="103.63,195.868 114.92,177.755 181.991,177.819 133.541,92.562 136.74,90.741 188.317,181.504 
					116.959,181.433 110.263,192.177 211.765,192.006 211.771,195.683 				"/>
			</g>
			<g>
				<polygon fill="#FFFFFF" points="83.562,208.257 80.386,206.398 133.981,114.795 170.32,178.732 167.122,180.552 
					133.936,122.157 				"/>
			</g>
			<g>
				
					<rect x="123.234" y="129.628" transform="matrix(0.8534 0.5212 -0.5212 0.8534 104.0089 -41.0963)" fill="#FFFFFF" width="3.676" height="69.496"/>
			</g>
		</g>
	</g>
	<g>
		<g>
			<g>
				<path fill="#010202" d="M430.819,179.111L380.582,61.11l-50.237,118.001h-10.059l60.295-142.725l60.75,142.725H430.819z"/>
				<path fill="#010202" d="M550.372,114.659h-76.326v54.52h81.192v9.738h-90.931V36.387h90.931v9.741h-81.192v58.8h76.326V114.659z
					"/>
				<path fill="#010202" d="M715.482,178.917h-9.734V73.577l-49.654,89.564l-49.453-89.564v105.34h-9.735V35.998l59.188,106.897
					l59.389-106.897V178.917z"/>
				<path fill="#010202" d="M776.429,178.917h-9.734V35.606h9.734V178.917z"/>
			</g>
		</g>
	</g>
	<g>
		<path d="M320.551,250.423v-16.82h1.491v15.562h5.57v1.259H320.551z"/>
		<path d="M328.155,233.603h1.701l-1.4,4.215h-1.233L328.155,233.603z"/>
		<path d="M338.527,233.603l5.243,16.82h-1.561l-1.352-4.425h-6.596l-1.327,4.425h-1.493l5.312-16.82H338.527z M340.462,244.738
			l-2.865-9.505h-0.048l-2.842,9.505H340.462z"/>
		<path d="M352.913,237.862c-0.047-2.068-0.56-3.331-2.844-3.331c-1.817,0-2.96,0.631-2.96,2.612c0,2.493,1.259,2.561,3.173,3.937
			c2.072,1.489,4.192,1.937,4.192,5.199c0,3.005-1.538,4.471-4.474,4.471c-3.284,0-4.754-1.771-4.613-5.057h1.536
			c0,1.864,0.143,3.801,3.146,3.801c1.959,0,2.916-1.052,2.916-2.981c0-2.285-1.515-2.939-3.94-4.429
			c-3.263-2.004-3.402-3.008-3.427-4.685c-0.021-2.914,1.819-4.124,4.568-4.124c3.497,0,4.241,2.165,4.241,4.587H352.913z"/>
		<path d="M364.57,237.862c-0.047-2.068-0.562-3.331-2.844-3.331c-1.819,0-2.96,0.631-2.96,2.612c0,2.493,1.259,2.561,3.171,3.937
			c2.072,1.489,4.194,1.937,4.194,5.199c0,3.005-1.538,4.471-4.474,4.471c-3.284,0-4.756-1.771-4.613-5.057h1.536
			c0,1.864,0.141,3.801,3.146,3.801c1.958,0,2.914-1.052,2.914-2.981c0-2.285-1.515-2.939-3.938-4.429
			c-3.263-2.004-3.402-3.008-3.427-4.685c-0.022-2.914,1.818-4.124,4.568-4.124c3.496,0,4.241,2.165,4.241,4.587H364.57z"/>
		<path d="M373.897,233.275c5.033,0,5.08,4.198,5.08,8.737c0,4.545-0.047,8.737-5.08,8.737c-5.034,0-5.081-4.192-5.081-8.737
			C368.816,237.474,368.863,233.275,373.897,233.275z M373.897,249.494c3.543,0,3.588-3.008,3.588-7.481
			c0-4.475-0.045-7.481-3.588-7.481s-3.59,3.007-3.59,7.481C370.307,246.486,370.354,249.494,373.897,249.494z"/>
		<path d="M381.71,242.013c0-4.539,0.047-8.737,5.081-8.737c4.077,0,4.145,3.354,4.145,4.868h-1.491
			c0-1.861-0.511-3.612-2.654-3.612c-3.542,0-3.589,3.007-3.589,7.481c0,4.474,0.047,7.481,3.589,7.481
			c1.933,0,2.654-1.726,2.679-3.895h1.583c0,1.214-0.278,5.15-4.262,5.15C381.757,250.75,381.71,246.558,381.71,242.013z"/>
		<path d="M395.372,233.603v16.82h-1.493v-16.82H395.372z"/>
		<path d="M404.602,233.603l5.243,16.82h-1.559l-1.353-4.425h-6.595l-1.327,4.425h-1.493l5.312-16.82H404.602z M406.538,244.738
			l-2.869-9.505h-0.048l-2.841,9.505H406.538z"/>
		<path d="M412.977,234.858h-4.102v-1.256h9.697v1.256h-4.105v15.564h-1.49V234.858z"/>
		<path d="M422.23,233.603v16.82h-1.487v-16.82H422.23z"/>
		<path d="M430.561,233.275c5.028,0,5.074,4.198,5.074,8.737c0,4.545-0.046,8.737-5.074,8.737c-5.039,0-5.086-4.192-5.086-8.737
			C425.475,237.474,425.521,233.275,430.561,233.275z M430.561,249.494c3.533,0,3.585-3.008,3.585-7.481
			c0-4.475-0.052-7.481-3.585-7.481c-3.549,0-3.594,3.007-3.594,7.481C426.967,246.486,427.012,249.494,430.561,249.494z"/>
		<path d="M438.833,250.423v-16.82h2.279l6.831,14.771l0.045-0.045v-14.727h1.496v16.82h-2.26l-6.851-14.937l-0.052,0.048v14.889
			H438.833z"/>
		<path d="M458.212,233.603h4.441c4.714,0,5.296,2.748,5.296,8.481c0,5.594-0.815,8.339-5.898,8.339h-3.839V233.603z
			 M459.701,249.164h1.819c4.493,0,4.94-1.211,4.94-8.084c0-4.82-0.654-6.222-4.805-6.222h-1.955V249.164z"/>
		<path d="M478.788,233.603v1.256h-6.125v6.293h5.847v1.26h-5.847v6.753h6.294v1.259h-7.789v-16.82H478.788z"/>
		<path d="M488.584,237.862c-0.052-2.068-0.557-3.331-2.842-3.331c-1.819,0-2.966,0.631-2.966,2.612
			c0,2.493,1.263,2.561,3.173,3.937c2.078,1.489,4.195,1.937,4.195,5.199c0,3.005-1.541,4.471-4.474,4.471
			c-3.289,0-4.753-1.771-4.616-5.057h1.541c0,1.864,0.136,3.801,3.146,3.801c1.955,0,2.907-1.052,2.907-2.981
			c0-2.285-1.509-2.939-3.937-4.429c-3.257-2.004-3.406-3.008-3.426-4.685c-0.02-2.914,1.819-4.124,4.571-4.124
			c3.49,0,4.234,2.165,4.234,4.587H488.584z"/>
		<path d="M505.969,233.603v1.256h-6.125v6.293h5.854v1.26h-5.854v6.753h6.294v1.259h-7.783v-16.82H505.969z M502.926,229.128h1.858
			l-3.335,3.195h-1.158L502.926,229.128z"/>
		<path d="M511.389,234.858h-4.112v-1.256h9.706v1.256h-4.105v15.564h-1.488V234.858z"/>
		<path d="M520.362,244.182c0,2.188,0,5.312,3.425,5.312s3.425-3.124,3.425-5.312v-10.579h1.489v11.674
			c0,4.334-2.278,5.474-4.914,5.474c-2.635,0-4.914-1.14-4.914-5.474v-11.674h1.489V244.182z"/>
		<path d="M532.023,233.603h4.441c4.713,0,5.296,2.748,5.296,8.481c0,5.594-0.822,8.339-5.898,8.339h-3.839V233.603z
			 M533.512,249.164h1.813c4.5,0,4.946-1.211,4.946-8.084c0-4.82-0.653-6.222-4.804-6.222h-1.956V249.164z"/>
		<path d="M546.565,233.603v16.82h-1.489v-16.82H546.565z"/>
		<path d="M555.791,233.603l5.251,16.82h-1.566l-1.354-4.425h-6.591l-1.327,4.425h-1.496l5.31-16.82H555.791z M557.728,244.738
			l-2.868-9.505h-0.046l-2.842,9.505H557.728z"/>
		<path d="M563.166,250.423v-16.82h2.279l6.831,14.771l0.045-0.045v-14.727h1.489v16.82h-2.26l-6.851-14.937l-0.045,0.048v14.889
			H563.166z"/>
		<path d="M580.046,234.858h-4.105v-1.256h9.699v1.256h-4.104v15.564h-1.489V234.858z"/>
		<path d="M594.775,237.862c-0.045-2.068-0.563-3.331-2.843-3.331c-1.819,0-2.958,0.631-2.958,2.612
			c0,2.493,1.256,2.561,3.166,3.937c2.071,1.489,4.195,1.937,4.195,5.199c0,3.005-1.534,4.471-4.474,4.471
			c-3.29,0-4.76-1.771-4.617-5.057h1.541c0,1.864,0.143,3.801,3.146,3.801c1.956,0,2.914-1.052,2.914-2.981
			c0-2.285-1.515-2.939-3.943-4.429c-3.257-2.004-3.398-3.008-3.425-4.685c-0.02-2.914,1.819-4.124,4.564-4.124
			c3.496,0,4.248,2.165,4.248,4.587H594.775z"/>
		<path d="M612.166,233.603v1.256h-6.125v6.293h5.847v1.26h-5.847v6.753h6.287v1.259h-7.782v-16.82H612.166z"/>
		<path d="M614.944,250.423v-16.82h2.285l6.824,14.771l0.046-0.045v-14.727h1.495v16.82h-2.26l-6.85-14.937l-0.052,0.048v14.889
			H614.944z"/>
		<path d="M634.226,250.423v-16.82h2.538l4.966,15.192h0.052l4.889-15.192h2.376v16.82h-1.489v-15.377h-0.052l-4.939,15.377h-1.723
			l-5.076-15.377h-0.052v15.377H634.226z"/>
		<path d="M658.098,233.603l5.244,16.82h-1.56l-1.354-4.425h-6.598l-1.327,4.425h-1.489l5.315-16.82H658.098z M660.033,244.738
			l-2.868-9.505h-0.045l-2.849,9.505H660.033z"/>
		<path d="M666.476,234.858h-4.104v-1.256h9.692v1.256h-4.104v15.564h-1.483V234.858z"/>
		<path d="M674.07,250.423v-16.82h1.496v7.549h6.617v-7.549h1.489v16.82h-1.489v-8.012h-6.617v8.012H674.07z"/>
		<path d="M694.725,233.603v1.256H688.6v6.293h5.847v1.26H688.6v6.753h6.287v1.259h-7.782v-16.82H694.725z M691.669,229.128h1.864
			l-3.327,3.195h-1.166L691.669,229.128z"/>
		<path d="M697.366,250.423v-16.82h2.538l4.96,15.192h0.052l4.889-15.192h2.376v16.82h-1.489v-15.377h-0.045l-4.94,15.377h-1.723
			l-5.082-15.377h-0.046v15.377H697.366z"/>
		<path d="M721.232,233.603l5.251,16.82h-1.567l-1.353-4.425h-6.592l-1.327,4.425h-1.489l5.31-16.82H721.232z M723.168,244.738
			l-2.868-9.505h-0.045l-2.843,9.505H723.168z"/>
		<path d="M729.61,234.858h-4.104v-1.256h9.692v1.256H731.1v15.564h-1.489V234.858z"/>
		<path d="M738.862,233.603v16.82h-1.488v-16.82H738.862z"/>
		<path d="M747.189,233.275c5.471,0,5.076,5.48,5.076,8.737c0,4.406-0.35,6.08-1.91,7.109l0.045,0.042h2.939v1.259h-3.218
			c-0.35,0-0.673,0.023-1.004,0.049c-0.35,0.022-0.718,0.045-1.21,0.045c-5.782,0-5.809-3.166-5.809-8.504
			C742.1,238.756,741.712,233.275,747.189,233.275z M750.776,242.013c0-4.244,0.045-7.481-3.587-7.481
			c-3.639,0-3.594,3.237-3.594,7.481c0,4.85,0.324,7.245,3.594,7.245C750.355,249.258,750.776,246.279,750.776,242.013z"/>
		<path d="M756.727,244.182c0,2.188,0,5.312,3.425,5.312s3.425-3.124,3.425-5.312v-10.579h1.496v11.674
			c0,4.334-2.285,5.474-4.921,5.474c-2.635,0-4.921-1.14-4.921-5.474v-11.674h1.496V244.182z"/>
		<path d="M775.995,233.603v1.256h-6.125v6.293h5.847v1.26h-5.847v6.753h6.293v1.259h-7.782v-16.82H775.995z"/>
		<path d="M429.045,266.241v1.256h-6.13v6.297h5.852v1.256h-5.852v6.756h6.292v1.26h-7.779v-16.824H429.045z"/>
		<path d="M434.456,267.497h-4.104v-1.256h9.698v1.256h-4.099v15.568h-1.496V267.497z"/>
		<path d="M448.895,266.241v16.824h-1.495v-16.824H448.895z"/>
		<path d="M452.527,283.065v-16.824h2.285l6.824,14.775l0.046-0.046v-14.729h1.495v16.824h-2.266l-6.851-14.938l-0.045,0.049v14.889
			H452.527z"/>
		<path d="M466.564,266.241h7.103v1.256h-5.613v6.297h5.225v1.256h-5.225v8.016h-1.489V266.241z"/>
		<path d="M480.523,265.914c5.037,0,5.083,4.195,5.083,8.737c0,4.549-0.046,8.741-5.083,8.741c-5.031,0-5.076-4.192-5.076-8.741
			C475.447,270.109,475.492,265.914,480.523,265.914z M480.523,282.136c3.542,0,3.587-3.007,3.587-7.484
			c0-4.474-0.045-7.479-3.587-7.479s-3.594,3.005-3.594,7.479C476.93,279.129,476.981,282.136,480.523,282.136z"/>
		<path d="M490.08,274.91v8.155h-1.482v-16.824h4.636c3.237,0,4.053,1.074,4.053,4.03c0,2.101-0.35,3.496-2.615,4.011v0.049
			c2.363,0.485,2.499,0.764,2.499,6.775c0,0.654,0.116,1.305,0.162,1.959h-1.418c-0.143-0.489-0.214-3.286-0.24-4.192
			c-0.02-0.726,0.473-3.963-2.771-3.963H490.08z M490.08,273.647h2.428c2.24,0,3.289-0.579,3.289-3.396
			c0-2.309-0.912-2.755-2.661-2.755h-3.056V273.647z"/>
		<path d="M500.323,283.065v-16.824h2.538l4.959,15.199h0.052l4.896-15.199h2.369v16.824h-1.489v-15.377h-0.045l-4.94,15.377h-1.722
			l-5.083-15.377h-0.045v15.377H500.323z"/>
		<path d="M524.195,266.241l5.244,16.824h-1.566l-1.347-4.426h-6.598l-1.328,4.426h-1.489l5.31-16.824H524.195z M526.125,277.381
			l-2.869-9.509h-0.045l-2.843,9.509H526.125z"/>
		<path d="M532.566,267.497h-4.098v-1.256h9.692v1.256h-4.105v15.568h-1.489V267.497z"/>
		<path d="M541.819,266.241v16.824h-1.482v-16.824H541.819z"/>
		<path d="M550.146,265.914c5.478,0,5.076,5.478,5.076,8.737c0,4.409-0.343,6.083-1.91,7.109l0.052,0.045h2.934v1.26h-3.212
			c-0.35,0-0.68,0.022-1.004,0.045c-0.355,0.026-0.725,0.049-1.217,0.049c-5.775,0-5.802-3.17-5.802-8.508
			C545.062,271.392,544.668,265.914,550.146,265.914z M553.732,274.651c0-4.24,0.046-7.479-3.587-7.479
			c-3.639,0-3.594,3.238-3.594,7.479c0,4.85,0.331,7.248,3.594,7.248C553.312,281.899,553.732,278.918,553.732,274.651z"/>
		<path d="M559.683,276.823c0,2.189,0,5.312,3.425,5.312c3.426,0,3.426-3.123,3.426-5.312v-10.582h1.495v11.677
			c0,4.331-2.285,5.475-4.921,5.475c-2.635,0-4.92-1.144-4.92-5.475v-11.677h1.495V276.823z"/>
		<path d="M578.958,266.241v1.256h-6.125v6.297h5.847v1.256h-5.847v6.756h6.287v1.26h-7.783v-16.824H578.958z"/>
		<path d="M586.863,266.241h4.455c4.707,0,5.289,2.748,5.289,8.481c0,5.595-0.822,8.343-5.898,8.343h-3.846V266.241z
			 M588.359,281.806h1.819c4.493,0,4.934-1.211,4.934-8.083c0-4.821-0.654-6.226-4.798-6.226h-1.955V281.806z"/>
		<path d="M607.446,266.241v1.256h-6.125v6.297h5.847v1.256h-5.847v6.756h6.287v1.26h-7.782v-16.824H607.446z"/>
		<path d="M615.164,283.065v-16.824h1.496v15.564h5.568v1.26H615.164z"/>
		<path d="M622.771,266.241h1.697l-1.399,4.218h-1.229L622.771,266.241z"/>
		<path d="M628.807,276.823c0,2.189,0,5.312,3.425,5.312s3.425-3.123,3.425-5.312v-10.582h1.489v11.677
			c0,4.331-2.279,5.475-4.914,5.475c-2.629,0-4.914-1.144-4.914-5.475v-11.677h1.489V276.823z"/>
		<path d="M645.193,265.914c5.478,0,5.083,5.478,5.083,8.737c0,4.409-0.35,6.083-1.917,7.109l0.052,0.045h2.934v1.26h-3.212
			c-0.355,0-0.68,0.022-1.003,0.045c-0.35,0.026-0.726,0.049-1.211,0.049c-5.782,0-5.802-3.17-5.802-8.508
			C640.117,271.392,639.716,265.914,645.193,265.914z M648.78,274.651c0-4.24,0.052-7.479-3.587-7.479
			c-3.632,0-3.587,3.238-3.587,7.479c0,4.85,0.324,7.248,3.587,7.248C648.359,281.899,648.78,278.918,648.78,274.651z"/>
		<path d="M659.062,266.241l5.244,16.824h-1.561l-1.353-4.426h-6.592l-1.327,4.426h-1.495l5.315-16.824H659.062z M660.998,277.381
			l-2.861-9.509h-0.052l-2.843,9.509H660.998z"/>
		<path d="M665.971,274.651c0-4.542,0.046-8.737,5.076-8.737c4.079,0,4.144,3.356,4.144,4.872h-1.482
			c0-1.865-0.512-3.613-2.661-3.613c-3.541,0-3.587,3.005-3.587,7.479c0,4.478,0.046,7.484,3.587,7.484
			c1.937,0,2.661-1.725,2.681-3.897h1.58c0,1.214-0.272,5.154-4.261,5.154C666.017,283.393,665.971,279.2,665.971,274.651z"/>
	</g>
</g>
<rect x="333.629" y="154.252" fill="#010202" width="94.202" height="7.251"/>
</svg>
